<?xml version="1.0" encoding="UTF-8" standalone="no" ?>
<!DOCTYPE svg PUBLIC "-//W3C//DTD SVG 1.1//EN" "http://www.w3.org/Graphics/SVG/1.1/DTD/svg11.dtd">
<svg xmlns="http://www.w3.org/2000/svg" xmlns:xlink="http://www.w3.org/1999/xlink" version="1.1" width="1080" height="1080" viewBox="0 0 1080 1080" xml:space="preserve">
<desc>Created with Fabric.js 5.2.4</desc>
<defs>
</defs>
<g transform="matrix(1 0 0 1 540 540)" id="ee1d71db-c614-4f0f-9926-694c06efed19"  >
<rect style="stroke: none; stroke-width: 1; stroke-dasharray: none; stroke-linecap: butt; stroke-dashoffset: 0; stroke-linejoin: miter; stroke-miterlimit: 4; fill: rgb(255,255,255); fill-rule: nonzero; opacity: 1; visibility: hidden;" vector-effect="non-scaling-stroke"  x="-540" y="-540" rx="0" ry="0" width="1080" height="1080" />
</g>
<g transform="matrix(1 0 0 1 540 540)" id="ffb04544-7c06-4cbb-a01c-0e5b69273c33"  >
</g>
<g transform="matrix(1 0 0 1 540 540)"  >
<g style="" vector-effect="non-scaling-stroke"   >
		<g transform="matrix(1 0 0 1 -167.24 -1.47)"  >
<path style="stroke: none; stroke-width: 1; stroke-dasharray: none; stroke-linecap: butt; stroke-dashoffset: 0; stroke-linejoin: miter; stroke-miterlimit: 4; fill: rgb(255,255,255); fill-rule: nonzero; opacity: 1;" vector-effect="non-scaling-stroke"  transform=" translate(-239.89, -302.96)" d="M 237.31 223.75 L 282.09000000000003 223.75 L 242.33 382.16 L 197.69 382.16 Z" stroke-linecap="round" />
</g>
		<g transform="matrix(1 0 0 1 -94.83 -0.07)"  >
<path style="stroke: none; stroke-width: 1; stroke-dasharray: none; stroke-linecap: butt; stroke-dashoffset: 0; stroke-linejoin: miter; stroke-miterlimit: 4; fill: rgb(255,255,255); fill-rule: nonzero; opacity: 1;" vector-effect="non-scaling-stroke"  transform=" translate(-312.3, -304.36)" d="M 303.26 225.33 L 348 225.33 L 338.48 262.08000000000004 L 357.1 262.08000000000004 L 350.47 289 L 331.72 289 L 317.48 346.22 Q 315.17 355.76000000000005 326.34000000000003 355.64000000000004 L 333.8 355.64000000000004 L 327.12 382.24000000000007 Q 313.61 383.37000000000006 301.81 383.38000000000005 C 288.17 383.51000000000005 278.93 381.75000000000006 274.08 378.03000000000003 Q 265.9 372.33000000000004 271.03 353.03000000000003 Z" stroke-linecap="round" />
</g>
		<g transform="matrix(1 0 0 1 -26.11 17.7)"  >
<path style="stroke: none; stroke-width: 1; stroke-dasharray: none; stroke-linecap: butt; stroke-dashoffset: 0; stroke-linejoin: miter; stroke-miterlimit: 4; fill: rgb(255,255,255); fill-rule: nonzero; opacity: 1;" vector-effect="non-scaling-stroke"  transform=" translate(-381.02, -322.13)" d="M 373.64 262.1 L 418.40999999999997 262.1 L 388.29 382.16 L 343.64 382.16 Z" stroke-linecap="round" />
</g>
		<g transform="matrix(1 0 0 1 77.1 19.19)"  >
<path style="stroke: none; stroke-width: 1; stroke-dasharray: none; stroke-linecap: butt; stroke-dashoffset: 0; stroke-linejoin: miter; stroke-miterlimit: 4; fill: rgb(255,255,255); fill-rule: nonzero; opacity: 1;" vector-effect="non-scaling-stroke"  transform=" translate(-484.24, -323.61)" d="M 438.74 262.12 L 483.53000000000003 262.12 L 463.68 341.34000000000003 Q 459.83 355.77000000000004 472.5 355.66 C 481.24 355.74 486.81 350.96000000000004 489.28 341.34000000000003 L 509.13 262.12 L 553.87 262.12 L 523.87 382.19 L 479.23 382.19 L 482.75 367.66 L 482.25 367.66 Q 468.72 385.12 444.25 385.1 C 433.96 385.23 426.06 383.03000000000003 420.54 378.42 C 414.64000000000004 373.90000000000003 413.13 365.33000000000004 416.04 352.81 Z" stroke-linecap="round" />
</g>
		<g transform="matrix(1 0 0 1 243.83 15.99)"  >
<path style="stroke: none; stroke-width: 1; stroke-dasharray: none; stroke-linecap: butt; stroke-dashoffset: 0; stroke-linejoin: miter; stroke-miterlimit: 4; fill: rgb(255,255,255); fill-rule: nonzero; opacity: 1;" vector-effect="non-scaling-stroke"  transform=" translate(-650.97, -320.42)" d="M 750.57 265.25 C 744.74 260.85 736.57 258.71 725.99 258.77 C 718.8146939606861 258.7925402467828 711.7088940956455 260.1770513952721 705.05 262.84999999999997 C 697.6028284743693 265.9354309686439 691.0886379546681 270.908963730511 686.15 277.28 C 685.05 271.05999999999995 682.22 266.41999999999996 677.65 263.28 C 673.0799999999999 260.14 665.92 258.72999999999996 656.36 258.72999999999996 Q 631.78 258.72999999999996 618.0600000000001 276.65999999999997 L 617.5500000000001 276.65999999999997 L 621.1300000000001 262.02 L 576 262.02 L 545.85 382.11 L 590.6700000000001 382.11 L 610.5400000000001 302.89 Q 614.2300000000001 288.46 627.1800000000001 288.66999999999996 Q 640.0400000000001 288.46 636.1800000000001 302.90999999999997 L 616.3100000000001 382.10999999999996 L 661 382.10999999999996 L 680.88 302.89 Q 684.63 288.46 697.88 288.66999999999996 C 706.52 288.53 709.49 293.27 706.88 302.89 L 687.1 382.11 L 706.84 382.11 C 720.84 382.11 734.19 372.83000000000004 737.32 360.11 L 754.5100000000001 291.49 C 757.51 278.93 756.22 270.17 750.57 265.25 Z" stroke-linecap="round" />
</g>
		<g transform="matrix(1 0 0 1 -295.02 -1.47)"  >
<path style="stroke: none; stroke-width: 1; stroke-dasharray: none; stroke-linecap: butt; stroke-dashoffset: 0; stroke-linejoin: miter; stroke-miterlimit: 4; fill: rgb(255,255,255); fill-rule: nonzero; opacity: 1;" vector-effect="non-scaling-stroke"  transform=" translate(-112.11, -302.96)" d="M 188.23 382.16 L 182.23 223.75000000000003 L 155.56 223.75000000000003 C 133.32 224.56000000000003 114.65 236.75000000000003 104.09 255.24000000000004 L 36 382.16 L 87.5 382.11 L 99.57 354.64 L 138.13 354.64 L 136.63 382.15999999999997 Z M 112.92999999999999 324.27000000000004 L 143.43 258.19000000000005 L 139.8 324.27000000000004 Z" stroke-linecap="round" />
</g>
		<g transform="matrix(1 0 0 1 358.89 65.96)"  >
<path style="stroke: none; stroke-width: 1; stroke-dasharray: none; stroke-linecap: butt; stroke-dashoffset: 0; stroke-linejoin: miter; stroke-miterlimit: 4; fill: rgb(255,255,255); fill-rule: nonzero; opacity: 1;" vector-effect="non-scaling-stroke"  transform=" translate(-766.02, -370.39)" d="M 778.26 370.06 C 778.3943488704952 375.04209040500336 775.494502465963 379.6081337537049 770.928029883747 381.6047815890777 C 766.3615573015309 383.6014294244505 761.0404651843833 382.6299152902612 757.474183387677 379.14840576577166 C 753.9079015909707 375.66689624128213 752.808680682286 370.3707113477942 754.6949138232472 365.7575346808359 C 756.5811469642085 361.1443580138775 761.0761194974159 358.13552386128424 766.06 358.15 C 769.2615624283945 358.0965464472572 772.3517073117715 359.3248384419134 774.6429373911212 361.5616048554425 C 776.9341674704709 363.79837126897155 778.2364311366656 366.8580781124628 778.26 370.06 Z M 756.84 370.06 C 756.7610144981553 372.5673417685567 757.7071032219706 374.99861999734827 759.4600633765725 376.79309266368466 C 761.2130235311745 378.587565330021 763.6214965033978 379.5902894402311 766.13 379.57 C 768.5983047779325 379.56069454387034 770.9574281379683 378.5512880279542 772.6685451136008 376.772329410116 C 774.3796620892333 374.99337079227786 775.2966253412739 372.5968017996036 775.21 370.13 C 775.21 364.83 771.36 360.54 766.0600000000001 360.54 C 763.5653225098986 360.54979213403885 761.1801250642282 361.5657394586247 759.4445698112156 363.3577661406941 C 757.7090145582031 365.14979282276346 756.7699353020553 367.5662873855214 756.84 370.06 Z M 764.1700000000001 376.3 L 761.4100000000001 376.3 L 761.4100000000001 364.39 C 762.924004935355 364.1134948414113 764.4610479167651 363.9828964181542 766 364 C 767.435148249107 363.8827074678337 768.8734576740741 364.1849608977181 770.14 364.87 C 770.9030251209485 365.5229412620958 771.3294938940278 366.4861724564643 771.3 367.49 C 771.1868604925211 368.85898694159516 770.1780859325356 369.9862006199594 768.8299999999999 370.25 L 768.8299999999999 370.39 C 770.0373619638425 370.88420083043525 770.87505596557 372.00240704375045 771.0099999999999 373.3 C 771.1229232079259 374.34306540115585 771.4173567322838 375.3583534161833 771.8799999999999 376.3 L 768.8799999999999 376.3 C 768.4218870702488 375.3864024104814 768.1049514616053 374.4086223412624 767.9399999999998 373.40000000000003 C 767.7199999999998 372.09000000000003 766.9399999999998 371.51000000000005 765.4699999999998 371.51000000000005 L 764.1599999999999 371.51000000000005 Z M 764.2400000000001 369.55 L 765.5500000000001 369.55 C 767.08 369.55 768.3100000000001 369.04 768.3100000000001 367.81 C 768.3100000000001 366.58 767.5100000000001 365.99 765.7700000000001 365.99 C 765.2557631111148 365.97664229212364 764.7418514069885 366.02702579252815 764.2400000000001 366.14 Z" stroke-linecap="round" />
</g>
</g>
</g>
</svg>