<?xml version="1.0" encoding="utf-8"?>
<!-- Generator: Adobe Illustrator 15.1.0, SVG Export Plug-In . SVG Version: 6.00 Build 0)  -->
<!DOCTYPE svg PUBLIC "-//W3C//DTD SVG 1.0//EN" "http://www.w3.org/TR/2001/REC-SVG-20010904/DTD/svg10.dtd" [
	<!ENTITY ns_flows "http://ns.adobe.com/Flows/1.0/">
	<!ENTITY ns_extend "http://ns.adobe.com/Extensibility/1.0/">
	<!ENTITY ns_ai "http://ns.adobe.com/AdobeIllustrator/10.0/">
	<!ENTITY ns_graphs "http://ns.adobe.com/Graphs/1.0/">
]>
<svg version="1.0" id="kisssoft-claim_x5F_vert-blue-grey" xmlns:x="&ns_extend;" xmlns:i="&ns_ai;" xmlns:graph="&ns_graphs;"
	 xmlns="http://www.w3.org/2000/svg" xmlns:xlink="http://www.w3.org/1999/xlink" xmlns:a="http://ns.adobe.com/AdobeSVGViewerExtensions/3.0/"
	 x="0px" y="0px" width="277.078px" height="56.146px" viewBox="0 0 277.078 56.146" enable-background="new 0 0 277.078 56.146"
	 xml:space="preserve">
<g>
	<path fill="#1875BB" d="M245.193,54.814h-12.223v-28.71h-7.51v-8.683h7.51v-2.29C232.971,4.808,237.716,0,247.905,0
		c1.569,0,3.313,0.138,4.783,0.378l0.296,0.048v8.4l-0.493-0.227c-0.904-0.416-1.784-0.555-3.043-0.502
		c-3.019,0.124-4.255,2.246-4.255,7.32v2.003v8.683V54.814z M269.355,55.663c-9.514,0-13.76-4.331-13.76-14.04V26.104h-10.402
		v-8.683h10.77v-6.724l11.487-5.931v12.654h9.035v8.683h-9.035v14.085c0,4.022,0.854,6.514,5.111,6.514
		c0.996,0,2.455-0.085,3.764-0.486l0.435-0.134l0.318,8.639l-0.274,0.071C274.724,55.338,271.94,55.663,269.355,55.663z"/>
	<path fill="#1875BB" d="M13.761,54.814H0V4.769h13.761v19.82c1.594-2.079,17.77-19.82,17.77-19.82h15.526L26.473,28.111
		l21.045,24.632v2.071H32.405c0,0-15.856-18.674-18.645-22.473V54.814z M61.027,54.814H47.517V10.698l13.511-5.931V54.814z"/>
	<g>
		<path fill="#1875BB" d="M206.095,56.146c-11.695,0-19.554-7.926-19.554-19.722c0-12.295,7.492-19.933,19.554-19.933
			c11.698,0,19.555,8.01,19.555,19.933C225.649,48.219,217.793,56.146,206.095,56.146z M206.095,25.07
			c-4.58,0-7.54,4.401-7.54,11.212c0,6.768,2.96,11.141,7.54,11.141c4.68,0,7.588-4.271,7.588-11.141
			C213.683,29.262,210.845,25.07,206.095,25.07z"/>
	</g>
	<g>
		<g>
			<g>
				<path fill="#1875BB" d="M64.429,39.833c0.415,4.439,1.911,7.747,4.992,11.042c2.931,3.136,8.356,5.27,16.047,5.27
					c4.386,0,8.099-1.082,10.969-2.431c2.853-1.343,5.029-3.483,6.617-6.074c1.59-2.597,2.396-5.473,2.396-8.549
					c0-2.613-0.601-5.007-1.791-7.117c-1.186-2.101-3.113-3.893-5.732-5.321c-2.649-1.445-7.115-2.897-13.27-4.315
					c-2.6-0.58-4.214-1.204-4.938-1.906c-0.758-0.688-1.144-1.486-1.144-2.372c0-1.177,0.461-2.188,1.373-3.006
					c0.9-0.807,2.235-1.214,3.971-1.214c2.087,0,3.755,0.538,4.957,1.599c1.354,1.197,2.114,2.558,2.456,4.399l12.479-1.145
					c-0.587-4.582-2.156-7.539-5.237-9.875c-3.011-2.282-7.384-4.041-13.157-4.041c-4.721,0-7.88,0.612-11.216,2.306
					c-2.635,1.342-4.746,3.188-6.072,5.365c-1.331,2.183-2.004,4.534-2.004,6.987c0,3.732,1.314,6.843,3.904,9.246
					c2.603,2.432,7.039,4.417,13.186,5.898c3.906,0.916,6.342,1.881,7.446,2.943c1.115,1.072,1.68,2.313,1.68,3.685
					c0,1.441-0.594,2.722-1.762,3.806c-1.162,1.077-2.821,1.624-4.934,1.624c-2.827,0-5.034-1.056-6.563-3.135
					c-1.063-1.456-1.662-2.954-1.929-4.845L64.429,39.833z"/>
			</g>
		</g>
	</g>
	<g>
		<g>
			<g>
				<g>
					<path fill="#1875BB" d="M150.177,44.937c0.718,3.473,2.683,5.856,5.086,7.752c2.459,1.942,6.302,3.456,12.129,3.456
						c4.218,0,8.907-1.199,12.291-3.9c2.924-2.333,4.396-5.438,4.396-9.254c0-2.114-0.527-4.084-1.566-5.85
						c-1.039-1.764-2.562-3.143-4.524-4.097c-1.978-0.962-5.049-1.725-9.123-2.267c-2.724-0.382-4.525-0.821-5.351-1.305
						c-0.869-0.512-1.312-1.276-1.312-2.277c0-0.887,0.345-1.65,1.023-2.271c0.666-0.61,1.736-0.917,3.171-0.917
						c1.41,0,2.631,0.395,3.628,1.179c0.617,0.493,1.412,1.343,1.764,2.598l11.129-1.287c-1.505-4.462-4.393-7.564-8.822-9.01
						c-2.249-0.732-4.611-1.025-6.967-1.025c-3.605,0-6.643,0.708-8.78,1.588c-2.123,0.874-3.813,2.211-5.023,3.979
						c-1.427,2.087-2.119,5.136-1.797,7.642c0.369,2.908,1.796,5.661,4.158,7.362c0.658,0.475,1.397,0.893,2.139,1.214
						c2.689,1.166,5.577,1.677,8.424,2.265c2.925,0.604,4.68,1.1,5.369,1.517c0.989,0.606,1.492,1.481,1.492,2.597
						c0,0.985-0.38,1.816-1.131,2.467c-0.94,0.858-2.273,1.292-3.974,1.292c-1.552,0-2.815-0.386-3.753-1.146
						c-0.64-0.514-1.789-1.661-2.391-3.595L150.177,44.937z"/>
				</g>
			</g>
		</g>
	</g>
	<g>
		<g>
			<g>
				<path fill="#1875BB" d="M107.544,39.833c0.414,4.439,1.911,7.747,4.991,11.042c2.93,3.136,8.356,5.27,16.047,5.27
					c4.386,0,8.1-1.082,10.969-2.431c2.854-1.343,5.029-3.483,6.618-6.074c1.591-2.597,2.395-5.473,2.395-8.549
					c0-2.613-0.6-5.007-1.79-7.117c-1.186-2.101-3.113-3.893-5.73-5.321c-2.652-1.445-7.116-2.897-13.271-4.315
					c-2.601-0.58-4.214-1.204-4.938-1.906c-0.759-0.688-1.145-1.486-1.145-2.372c0-1.177,0.461-2.188,1.374-3.006
					c0.9-0.807,2.235-1.214,3.97-1.214c2.088,0,3.755,0.538,4.957,1.599c1.354,1.197,2.114,2.558,2.456,4.399l12.48-1.145
					c-0.588-4.582-2.158-7.539-5.237-9.875c-3.013-2.282-7.383-4.041-13.157-4.041c-4.719,0-7.881,0.612-11.216,2.306
					c-2.635,1.342-4.746,3.188-6.074,5.365c-1.328,2.183-2.003,4.534-2.003,6.987c0,3.732,1.315,6.843,3.904,9.246
					c2.602,2.432,7.039,4.417,13.186,5.898c3.907,0.916,6.344,1.881,7.446,2.943c1.115,1.072,1.68,2.313,1.68,3.685
					c0,1.441-0.593,2.722-1.761,3.806c-1.163,1.077-2.822,1.624-4.935,1.624c-2.827,0-5.033-1.056-6.563-3.135
					c-1.065-1.456-1.66-2.954-1.93-4.845L107.544,39.833z"/>
			</g>
		</g>
	</g>
</g>
</svg>
