<svg width="136" height="49" xmlns="http://www.w3.org/2000/svg" xml:space="preserve" version="1.1">
 <g id="Layer_1">
  <title>Layer 1</title>
  <g stroke="null" id="svg_1">
   <path stroke="null" id="svg_1" fill="#ffffff" d="m25,47.6l-15.6,-28.2l0,28.2l-9.4,0l0,-47.4l9.9,0l15.4,28.5l0,-28.5l9.5,0l0,47.4l-9.8,0z" class="st0"/>
   <path stroke="null" id="svg_2" fill="#ffffff" d="m43.8,47.6l0,-47.4l9.6,0l0,47.4l-9.6,0z" class="st0"/>
   <path stroke="null" id="svg_3" fill="#ffffff" d="m81.1,9.4l0,38.2l-9.5,0l0,-38.2l-12.9,0l0,-9.2l35.4,0l0,9.2l-13,0z" class="st0"/>
   <path stroke="null" id="svg_4" fill="#ffffff" d="m133,40.7c-1,1.4 -4.1,4.7 -5.8,5.8c-1.4,0.8 -3.3,1.5 -5.1,1.5l-11.1,0l-1.4,0c-1.8,0 -3.8,-0.7 -5.1,-1.5c-1.8,-1 -4.9,-4.4 -5.8,-5.8c-1,-1.5 -1.4,-3.3 -1.4,-4.9l0,-14l0,-9.7c0,-1.6 0.3,-3.4 1.4,-4.9c1,-1.4 4.1,-4.7 5.8,-5.8c1.4,-0.8 3.3,-1.5 5.1,-1.5l11.1,0l1.4,0c1.8,0 3.8,0.7 5.1,1.5c1.8,1 4.9,4.4 5.8,5.8c1,1.5 1.4,3.3 1.4,4.9l0,14l0,9.7c0,1.6 -0.3,3.4 -1.4,4.9zm-8.2,-5.1l0,-13.7l0,-9.5l0,-0.1c-0.9,-1.2 -2.2,-2.6 -2.9,-3l-0.2,0l-11.8,0l-0.1,0c-0.7,0.4 -2.1,1.7 -3,3l0,0.1l0,13.7l0,9.5l0,0.1c0.9,1.2 2.2,2.6 2.9,3l0.2,0l11.8,0l0.1,0c0.8,-0.5 2.1,-1.7 3,-3.1l0,0z" class="st0"/>
  </g>
 </g>
</svg>