<?xml version="1.0" encoding="utf-8"?>
<!-- Generator: Adobe Illustrator 23.0.1, SVG Export Plug-In . SVG Version: 6.00 Build 0)  -->
<svg version="1.1" id="Logo" xmlns="http://www.w3.org/2000/svg" xmlns:xlink="http://www.w3.org/1999/xlink" x="0px" y="0px"
	 viewBox="0 0 611.9 134.11" style="enable-background:new 0 0 611.9 134.11;" xml:space="preserve">
<style type="text/css">
	.st0{fill:#37424A;}
</style>
<path class="st0" d="M99.99,0l35.42,108.72c0.76,2.46,3.79,4.74,6.06,4.74h3.98v19.13H83.7v-19.13h16.29L73.09,26.9h-0.74
	l-26.9,86.56h16.29v19.13H0v-19.13h3.98c2.27,0,5.3-2.27,6.06-4.74L45.46,0H99.99z"/>
<path class="st0" d="M149.32,113.46h5.87c2.08,0,4.73-2.65,4.73-4.74V58.15c0-1.89-2.65-4.93-4.73-4.93h-6.44V32.96h38.08
	c3.41,0,5.68,2.84,6.44,14.02c6.44-8.34,13.83-15.15,26.71-15.15c1.89,0,3.6,0.38,6.06,1.14v25h-4.55
	c-13.83,0-22.54,2.27-28.03,4.55v50.95h12.5v19.13h-56.64V113.46z"/>
<path class="st0" d="M224.42,83.15c0-32.58,21.03-51.9,54.74-51.9c15.91,0,27.28,2.08,34.47,5.11v25.95H294.7
	c-3.22-6.25-6.82-9.66-15.53-9.66c-12.88,0-20.27,9.28-20.27,30.69c0,21.59,6.44,30.3,20.46,30.3c10.42,0,15.34-4.73,19.13-9.66
	h15.34v21.22c-7.58,4.74-19.13,8.9-35.61,8.9C242.23,134.11,224.42,115.36,224.42,83.15"/>
<path class="st0" d="M318.87,113.46h5.87c2.08,0,4.54-2.84,4.54-4.74v-84.1c0-1.89-2.46-4.74-4.54-4.74h-6.44V0h39.4
	c3.41,0,5.3,2.65,5.3,7.2v38.64c8.9-8.52,21.21-14.58,36.18-14.58c13.64,0,25.76,5.49,25.76,24.43v53.04c0,2.08,2.65,4.74,4.74,4.74
	h4.36v19.13h-52.09v-19.13h9.28V68c0-8.9-3.6-11.18-12.69-11.18c-5.11,0-10.61,1.14-15.53,2.46v54.17h9.66v19.13h-53.8V113.46z"/>
<path class="st0" d="M499.98,72.17c-0.95-15.34-5.3-21.21-14.77-21.21c-9.85,0-15.72,6.06-17.43,21.21H499.98z M433.31,83.35
	c0-32.01,20.27-52.09,51.9-52.09c31.44,0,47.17,15.53,47.17,49.82c0,3.98-0.38,7.38-0.38,8.52H467.4
	c1.32,16.67,8.34,24.06,22.16,24.06c11.37,0,16.1-3.98,20.65-9.66h18.37v20.65c-8.53,5.12-20.46,9.47-42.24,9.47
	C449.98,134.11,433.31,114.6,433.31,83.35"/>
<path class="st0" d="M535.19,113.46h5.87c2.08,0,4.73-2.65,4.73-4.74V58.15c0-1.89-2.65-4.93-4.73-4.93h-6.44V32.96h38.07
	c3.41,0,5.68,2.84,6.44,14.02c6.44-8.34,13.83-15.15,26.71-15.15c1.9,0,3.6,0.38,6.06,1.14v25h-4.55c-13.82,0-22.54,2.27-28.03,4.55
	v50.95h12.5v19.13h-56.64V113.46z"/>
</svg>
