<svg width="41" height="15" viewBox="0 0 41 15" fill="none" xmlns="http://www.w3.org/2000/svg">
<mask id="path-1-inside-1_505_297" fill="white">
<path fill-rule="evenodd" clip-rule="evenodd" d="M39.2417 0.012207L20.5 8L1.80167 0.012207L0.5 0.585069L20.5 14.8196L40.5 0.575815L39.2417 0.012207Z"/>
</mask>
<path fill-rule="evenodd" clip-rule="evenodd" d="M39.2417 0.012207L20.5 8L1.80167 0.012207L0.5 0.585069L20.5 14.8196L40.5 0.575815L39.2417 0.012207Z" fill="white"/>
<path d="M39.2417 0.012207L43.3294 -9.11416L39.3411 -10.9005L35.3209 -9.18711L39.2417 0.012207ZM20.5 8L16.5715 17.196L20.4955 18.8723L24.4208 17.1993L20.5 8ZM1.80167 0.012207L5.73015 -9.18383L1.74246 -10.8873L-2.22648 -9.14061L1.80167 0.012207ZM0.5 0.585069L-3.52815 -8.56775L-19.6417 -1.47618L-5.29858 8.73225L0.5 0.585069ZM20.5 14.8196L14.7014 22.9668L20.5019 27.0952L26.3011 22.965L20.5 14.8196ZM40.5 0.575815L46.3011 8.72121L60.5278 -1.41096L44.5877 -8.55055L40.5 0.575815ZM35.3209 -9.18711L16.5792 -1.19931L24.4208 17.1993L43.1625 9.21152L35.3209 -9.18711ZM24.4285 -1.19603L5.73015 -9.18383L-2.12681 9.20824L16.5715 17.196L24.4285 -1.19603ZM-2.22648 -9.14061L-3.52815 -8.56775L4.52815 9.73789L5.82981 9.16502L-2.22648 -9.14061ZM-5.29858 8.73225L14.7014 22.9668L26.2986 6.67246L6.29858 -7.56211L-5.29858 8.73225ZM26.3011 22.965L46.3011 8.72121L34.6989 -7.56958L14.6989 6.67424L26.3011 22.965ZM44.5877 -8.55055L43.3294 -9.11416L35.154 9.13858L36.4123 9.70218L44.5877 -8.55055Z" fill="white" mask="url(#path-1-inside-1_505_297)"/>
</svg>
