<?xml version="1.0" encoding="UTF-8" standalone="no" ?>
<!DOCTYPE svg PUBLIC "-//W3C//DTD SVG 1.1//EN" "http://www.w3.org/Graphics/SVG/1.1/DTD/svg11.dtd">
<svg xmlns="http://www.w3.org/2000/svg" xmlns:xlink="http://www.w3.org/1999/xlink" version="1.1" width="1080" height="1080" viewBox="0 0 1080 1080" xml:space="preserve">
<desc>Created with Fabric.js 5.2.4</desc>
<defs>
</defs>
<g transform="matrix(1 0 0 1 540 540)" id="b18b3e04-6096-4896-88e0-da7110c70ef6"  >
<rect style="stroke: none; stroke-width: 1; stroke-dasharray: none; stroke-linecap: butt; stroke-dashoffset: 0; stroke-linejoin: miter; stroke-miterlimit: 4; fill: rgb(255,255,255); fill-rule: nonzero; opacity: 1; visibility: hidden;" vector-effect="non-scaling-stroke"  x="-540" y="-540" rx="0" ry="0" width="1080" height="1080" />
</g>
<g transform="matrix(1 0 0 1 540 540)" id="2cce2bca-c750-4b65-8957-130d67104b26"  >
</g>
<g transform="matrix(2.98 0 0 2.98 540 540)"  >
<path style="stroke: none; stroke-width: 1; stroke-dasharray: none; stroke-linecap: butt; stroke-dashoffset: 0; stroke-linejoin: miter; stroke-miterlimit: 4; fill: rgb(255,255,255); fill-rule: nonzero; opacity: 1;"  transform=" translate(-139.34, -18.17)" d="M 238.077 14.382 L 238.077 36.294 L 245.10399999999998 36.294 L 245.10399999999998 21.705 L 270.679 21.705 L 270.679 36.294 L 277.70099999999996 36.294 L 277.70099999999996 14.42 L 238.07699999999997 14.382 M 244.32099999999997 7.294 L 271.34099999999995 7.294 C 275.09399999999994 6.548 277.88499999999993 3.2359999999999998 278.67199999999997 0.03200000000000003 L 236.99099999999999 0.03200000000000003 C 237.76999999999998 3.237 240.60199999999998 6.548 244.321 7.294 M 216.795 36.308 C 220.338 34.806 222.244 32.208 222.974 29.168 L 191.457 29.168 L 191.477 0.05000000000000071 L 184.412 0.07000000000000071 L 184.412 36.308 L 216.79500000000002 36.308 M 131.874 7.196 L 156.828 7.196 C 160.59 6.103 163.749 3.2369999999999997 164.519 0.05999999999999961 L 124.879 0.05999999999999961 L 124.879 21.474999999999998 L 157.323 21.474999999999998 L 157.323 28.99 L 131.874 29.009999999999998 C 127.886 30.122 124.50399999999999 32.8 122.817 36.336999999999996 L 124.87899999999999 36.299 L 164.29399999999998 36.299 L 164.29399999999998 14.355 L 131.87399999999997 14.355 L 131.87399999999997 7.196 M 70.27099999999996 7.265 L 97.28199999999995 7.265 C 101.03999999999995 6.516 103.83299999999996 3.207 104.61599999999996 0 L 62.937 0 C 63.714999999999996 3.207 66.54899999999999 6.516 70.271 7.265 M 70.271 21.587 L 97.282 21.587 C 101.03999999999999 20.846 103.833 17.534 104.616 14.325 L 62.937 14.325 C 63.714999999999996 17.535 66.54899999999999 20.846 70.271 21.587 M 70.271 36.304 L 97.282 36.304 C 101.03999999999999 35.557 103.833 32.246 104.616 29.041000000000004 L 62.937 29.041000000000004 C 63.714999999999996 32.24700000000001 66.54899999999999 35.557 70.271 36.304 M 0 0.088 C 0.812 3.255 3.554 6.492 7.316 7.303 L 18.686 7.303 L 19.266 7.532 L 19.266 36.223 L 26.366 36.223 L 26.366 7.532 L 27.011 7.303 L 38.391 7.303 C 42.195 6.323 44.878 3.255 45.676 0.08800000000000008 L 45.676 0.01800000000000007 L 0 0.01800000000000007 L 0 0.08800000000000008" stroke-linecap="round" />
</g>
</svg>